HIERARCHY
ROOT ui
{
	 OFFSET 0 0 0
	 CHANNELS 3 XPosition YPosition Z Position
	 EndSite
	 {
	 OFFSET 0 -1 0
	 }
}
ROOT li
{
	 OFFSET 0 0 0
	 CHANNELS 3 XPosition YPosition Z Position
	 EndSite
	 {
	 OFFSET 0 -1 0
	 }
}
ROOT ul
{
	 OFFSET 0 0 0
	 CHANNELS 3 XPosition YPosition Z Position
	 EndSite
	 {
	 OFFSET 0 -1 0
	 }
}
ROOT ll
{
	 OFFSET 0 0 0
	 CHANNELS 3 XPosition YPosition Z Position
	 EndSite
	 {
	 OFFSET 0 -1 0
	 }
}
ROOT tt
{
	 OFFSET 0 0 0
	 CHANNELS 3 XPosition YPosition Z Position
	 EndSite
	 {
	 OFFSET 0 -1 0
	 }
}
ROOT tb
{
	 OFFSET 0 0 0
	 CHANNELS 3 XPosition YPosition Z Position
	 EndSite
	 {
	 OFFSET 0 -1 0
	 }
}
ROOT td
{
	 OFFSET 0 0 0
	 CHANNELS 3 XPosition YPosition Z Position
	 EndSite
	 {
	 OFFSET 0 -1 0
	 }
}
ROOT v
{
	 OFFSET 0 0 0
	 CHANNELS 3 XPosition YPosition Z Position
	 EndSite
	 {
	 OFFSET 0 -1 0
	 }
}
ROOT bn
{
	 OFFSET 0 0 0
	 CHANNELS 3 XPosition YPosition Z Position
	 EndSite
	 {
	 OFFSET 0 -1 0
	 }
}
MOTION
Frames: 21
Frame Time: 0.002
0.0039752829074859615	-0.004240209102630615	0		0.48800588989257815	-2.36723388671875	0		-0.998349609375	0.265791015625	0		-0.6199147338867188	-2.85480126953125	0		2.08634228515625	-0.3503695983886719	0		3.401050537109375	-0.16572117614746093	0		4.558998046875	0.037119354248046875	0		5.89536669921875	0.3404767150878906	0		-0.210586669921875	5.897333984375	0		
0.015867827415466308	-0.0013524370193481446	0		0.4427159729003906	-2.36956787109375	0		-0.9934304809570312	0.2698208923339844	0		-0.6113295288085937	-2.8648427734375	0		2.066250732421875	-0.3451251220703125	0		3.4411015625	-0.15137652587890624	0		4.56393505859375	0.042904510498046874	0		5.90445703125	0.3561460266113281	0		-0.2094894256591797	5.8963857421875	0		
0.010787885665893554	0.0027618019580841063	0		0.5004703063964844	-2.371354736328125	0		-0.9185642700195312	0.2688492431640625	0		-0.5766196899414062	-2.868266357421875	0		2.10011181640625	-0.344635986328125	0		3.407201416015625	-0.13398507690429687	0		4.56582763671875	0.04474918746948242	0		5.89436279296875	0.35810882568359376	0		-0.04497029876708984	5.92613037109375	0		
-0.015334569931030273	0.0031610429286956787	0		0.45833218383789065	-2.36674560546875	0		-0.9246100463867187	0.2739950866699219	0		-0.5401331787109375	-2.889734130859375	0		2.082935546875	-0.347427978515625	0		3.407072265625	-0.13405732727050781	0		4.5657041015625	0.04464101791381836	0		5.89523486328125	0.35694549560546873	0		-0.19237603759765626	5.8942392578125	0		
0.011434954643249512	-0.005197318077087403	0		0.4899451293945313	-2.382185302734375	0		-0.9297743530273438	0.27010980224609377	0		-0.5834125366210937	-2.89609228515625	0		2.0466041259765624	-0.3619474792480469	0		3.411038330078125	-0.12817530822753906	0		4.56070361328125	0.05262180709838867	0		5.89901513671875	0.34876873779296874	0		-0.07419095611572266	5.90459912109375	0		
-0.019597509384155273	2.4891699850559235E-4	0		0.4539421691894531	-2.37167724609375	0		-0.929875732421875	0.2701351013183594	0		-0.5546852416992187	-2.90448193359375	0		2.078488525390625	-0.3624263916015625	0		3.404198974609375	-0.10912906646728515	0		4.5567822265625	0.06560613250732422	0		5.89914111328125	0.3646728210449219	0		-0.21129296875	5.89854541015625	0		
0.011231023788452149	-0.005192208766937256	0		0.47159002685546875	-2.38793896484375	0		-0.9939781494140625	0.2700468444824219	0		-0.6050223999023437	-2.91877099609375	0		2.0444183349609375	-0.35997265625	0		3.388285400390625	-0.09594570922851563	0		4.5637978515625	0.07345195770263672	0		5.9119189453125	0.3554205322265625	0		-0.17822917175292968	5.9050771484375	0		
-0.01574198341369629	0.0031730170249938965	0		0.4714893493652344	-2.38795703125	0		-0.9250018310546875	0.27405963134765626	0		-0.53824560546875	-2.92773046875	0		2.0264569091796876	-0.35074490356445315	0		3.386380126953125	-0.08295132446289062	0		4.54683837890625	0.08265304565429688	0		5.90795947265625	0.36443109130859375	0		-0.19244284057617186	5.89426123046875	0		
0.010176701545715332	0.0027780179977416994	0		0.52329541015625	-2.39671826171875	0		-0.9250808715820312	0.2740311279296875	0		-0.5454187622070312	-2.93465869140625	0		2.0592197265625	-0.3622351379394531	0		3.386301513671875	-0.08297420501708984	0		4.541873046875	0.09070158386230469	0		5.91589404296875	0.36529824829101565	0		-0.060203041076660156	5.91636474609375	0		
-0.019929306030273437	1.6411800682544707E-4	0		0.51919091796875	-2.400695556640625	0		-0.930078369140625	0.2790559997558594	0		-0.5087635803222657	-2.956221923828125	0		2.0182730712890624	-0.3536791076660156	0		3.366350830078125	-0.07470490264892578	0		4.545904296875	0.09764054870605468	0		5.90781103515625	0.3644180603027344	0		-0.060314552307128906	5.91632568359375	0		
0.0060166740417480465	-2.524310052394867E-4	0		0.4901745910644531	-2.400328369140625	0		-0.930133544921875	0.27899435424804686	0		-0.5369278564453125	-2.966881591796875	0		2.0270701904296873	-0.3648271179199219	0		3.374440673828125	-0.06482279968261719	0		4.5458515625	0.09765245056152344	0		5.91162744140625	0.35539266967773436	0		-0.22585260009765626	5.88860888671875	0		
0.00598444414138794	-3.1239598989486696E-4	0		0.49221453857421876	-2.39840771484375	0		-0.925241943359375	0.2738471374511719	0		-0.5389334716796875	-2.968923095703125	0		2.0009766845703125	-0.36948275756835935	0		3.371776611328125	-0.038781063079833984	0		4.53303076171875	0.11285786437988281	0		5.911828125	0.372439697265625	0		-0.17678652954101562	5.90285205078125	0		
0.014960386276245118	-0.0015099430084228515	0		0.4762188720703125	-2.4012421875	0		-0.921088623046875	0.28569769287109376	0		-0.5270035400390625	-2.97817431640625	0		1.9831044921875	-0.3602561340332031	0		3.357882568359375	-0.030579761505126955	0		4.534244140625	0.1288733673095703	0		5.91569775390625	0.36444644165039064	0		-0.17888632202148438	5.9058046875	0		
0.010033411979675293	0.002478305101394653	0		0.51523779296875	-2.405859375	0		-0.9301773071289062	0.2787188110351563	0		-0.5139810180664063	-2.983452392578125	0		1.955048583984375	-0.3658922729492188	0		3.318945556640625	-0.02702630615234375	0		4.51737109375	0.13714787292480468	0		5.91983056640625	0.3734617919921875	0		-0.07602037048339844	5.9052705078125	0		
0.006032938957214355	-5.579199790954589E-4	0		0.4593966369628906	-2.40215234375	0		-0.9301441040039062	0.2785988464355469	0		-0.5080639343261719	-2.998642822265625	0		1.9669591064453125	-0.37609564208984375	0		3.32907080078125	-0.021163509368896483	0		4.517408203125	0.13718635559082032	0		5.91986083984375	0.37354107666015623	0		-0.19527940368652344	5.89684521484375	0		
0.01102588653564453	-0.005730961799621582	0		0.5281507568359375	-2.43020458984375	0		-0.9360328979492187	0.28254949951171876	0		-0.5021030578613281	-3.01284521484375	0		1.9261082763671875	-0.37056451416015623	0		3.31343017578125	5.889799818396568E-5	0		4.5005810546875	0.14546127319335939	0		5.92889794921875	0.37249700927734375	0		-0.1792764434814453	5.9055107421875	0		
-0.019820320129394532	-4.125890135765076E-4	0		0.47642825317382814	-2.421576171875	0		-1.0060104370117187	0.2793820190429688	0		-0.4940914001464844	-3.02508642578125	0		1.9270335693359375	-0.382628173828125	0		3.313510986328125	5.368800088763237E-5	0		4.49576904296875	0.1535641632080078	0		5.92409228515625	0.38164678955078124	0		-0.21444247436523436	5.90187939453125	0		
0.010311549186706542	0.002044748067855835	0		0.532556640625	-2.42546337890625	0		-0.9208377685546875	0.2850393981933594	0		-0.5407514038085938	-3.01457373046875	0		1.895170654296875	-0.38024090576171876	0		3.2888154296875	0.015389520645141602	0		4.49096875	0.16166249084472656	0		5.9200615234375	0.3737814636230469	0		-0.1804705810546875	5.9072744140625	0		
-0.019626573562622072	-6.70291006565094E-4	0		0.5017183227539063	-2.427146240234375	0		-0.9407174072265625	0.28715206909179686	0		-0.46988433837890625	-3.039709228515625	0		2.0472283935546876	-0.38541741943359376	0		3.28401318359375	0.022442140579223634	0		4.481287109375	0.17782618713378906	0		5.924259765625	0.381802001953125	0		-0.18057867431640626	5.90713525390625	0		
0.006476196765899658	-0.001170989990234375	0		0.5248138427734375	-2.43458544921875	0		-0.9406227416992188	0.28697760009765627	0		-0.5086910095214844	-3.04132568359375	0		1.9031954345703126	-0.39548565673828123	0		3.25606494140625	0.01881169128417969	0		4.472400390625	0.17897616577148437	0		5.92823974609375	0.373825927734375	0		-0.06352227401733399	5.91836669921875	0		
-0.01941334533691406	-9.575170278549194E-4	0		0.4960182189941406	-2.434310546875	0		-0.9355953979492188	0.2817268371582031	0		-0.4677186279296875	-3.060055908203125	0		1.9979918212890626	-0.41986865234375	0		3.247186767578125	0.01991525650024414	0		4.44850390625	0.1793338623046875	0		5.92444384765625	0.3819625549316406	0		-0.04851918411254883	5.92701025390625	0		
